# xmcd CD database file
#
# Track frame offsets:
#	150
#	9422
#	21713
#	35134
#	48565
#	60801
#	73939
#	88369
#	102365
#	117337
#	130421
#	144026
#	158651
#	173841
#	188054
#	201398
#
# Disc length: 2863 seconds
#
# Revision: 0
# Processed by: cddbd v1.5.2PL0 Copyright (c) Steve Scherf et al.
# Submitted via: CDex 1.70beta2
#
DISCID=e60b2d10
DTITLE=Woody Herman - A String of Pearls
DYEAR=2003
DGENRE=Jazz
TTITLE0=Chip's Blues
TTITLE1=My Fine Feathered Friend
TTITLE2=I Wanna Be in Winchell's Column
TTITLE3=Twin City Blues
TTITLE4=Big Wig in the Wigwam
TTITLE5=Beiadway's gone Hawai
TTITLE6=A String of Pearls
TTITLE7=Las Chapiancas
TTITLE8=East Side Kick
TTITLE9=Get Your Boots Laced Papa Part 1
TTITLE10=Red River Blues
TTITLE11=Why Ralk About Love
TTITLE12=You're a Sweetheart
TTITLE13=Laughing Boy Blues
TTITLE14=Get Your Boots Laced Papa Part 2
TTITLE15=Dallas Blues
EXTD=YEAR: 2003
EXTT0=
EXTT1=
EXTT2=
EXTT3=
EXTT4=
EXTT5=
EXTT6=
EXTT7=
EXTT8=
EXTT9=
EXTT10=
EXTT11=
EXTT12=
EXTT13=
EXTT14=
EXTT15=
PLAYORDER=
